<?xml version="1.0" encoding="utf-8"?>
<!-- Generator: Adobe Illustrator 24.1.1, SVG Export Plug-In . SVG Version: 6.00 Build 0)  -->
<svg version="1.1" id="Capa_1" xmlns="http://www.w3.org/2000/svg" xmlns:xlink="http://www.w3.org/1999/xlink" x="0px" y="0px"
	 viewBox="0 0 1080 222" style="enable-background:new 0 0 1080 222;" xml:space="preserve">
<style type="text/css">
	.st0{fill:url(#SVGID_1_);}
	.st1{fill:url(#SVGID_2_);}
	.st2{fill:url(#SVGID_3_);}
	.st3{fill:#1F6FB1;}
	.st4{fill:#8F8F95;}
	.st5{fill:#6C4BE8;}
	.st6{fill:url(#SVGID_4_);}
	.st7{fill:url(#SVGID_5_);}
	.st8{fill:url(#SVGID_6_);}
	.st9{fill:url(#SVGID_7_);}
	.st10{fill:url(#SVGID_8_);}
	.st11{fill:url(#SVGID_9_);stroke:url(#SVGID_10_);stroke-width:0.75;stroke-miterlimit:10;}
	.st12{fill:url(#SVGID_11_);stroke:url(#SVGID_12_);stroke-width:0.75;stroke-miterlimit:10;}
	.st13{fill:url(#SVGID_13_);stroke:url(#SVGID_14_);stroke-width:0.75;stroke-miterlimit:10;}
	.st14{fill:url(#SVGID_15_);stroke:url(#SVGID_16_);stroke-width:0.75;stroke-miterlimit:10;}
	.st15{fill:url(#SVGID_17_);stroke:url(#SVGID_18_);stroke-width:0.75;stroke-miterlimit:10;}
	.st16{fill:url(#SVGID_19_);stroke:url(#SVGID_20_);stroke-width:0.75;stroke-miterlimit:10;}
	.st17{fill:url(#SVGID_21_);stroke:url(#SVGID_22_);stroke-width:0.75;stroke-miterlimit:10;}
	.st18{fill:url(#SVGID_23_);stroke:url(#SVGID_24_);stroke-width:0.75;stroke-miterlimit:10;}
	.st19{fill:url(#SVGID_25_);stroke:url(#SVGID_26_);stroke-width:0.75;stroke-miterlimit:10;}
	.st20{fill:url(#SVGID_27_);stroke:url(#SVGID_28_);stroke-width:0.75;stroke-miterlimit:10;}
	.st21{fill:url(#SVGID_29_);stroke:url(#SVGID_30_);stroke-width:0.75;stroke-miterlimit:10;}
	.st22{fill:url(#SVGID_31_);stroke:url(#SVGID_32_);stroke-width:0.75;stroke-miterlimit:10;}
	.st23{fill:url(#SVGID_33_);stroke:url(#SVGID_34_);stroke-width:0.75;stroke-miterlimit:10;}
	.st24{fill:url(#SVGID_35_);stroke:url(#SVGID_36_);stroke-width:0.75;stroke-miterlimit:10;}
</style>
<g>
	<linearGradient id="SVGID_1_" gradientUnits="userSpaceOnUse" x1="511.3459" y1="195.5936" x2="614.432" y2="36.82">
		<stop  offset="0" style="stop-color:#6C4BE8"/>
		<stop  offset="1" style="stop-color:#1F6FB1"/>
	</linearGradient>
	<path class="st0" d="M607.8,201.2c0.5,0.5-0.1,1.4-0.7,1c-19.9-10.5-49.5-21.6-86.4-21.6c-56.7,0-96.5,26.1-111.4,37.2
		c-0.6,0.4-1.3-0.2-0.9-0.8l62-104.4L533.5,6.3c0.3-0.4,0.9-0.4,1.1,0l18.1,31.4l8.1,14c0.1,0.2,0.1,0.4,0,0.6
		c-19.4,34.5-38.8,69-58.2,103.4c-0.2,0.4,0.1,0.9,0.5,1c14.5,0.5,43.5,3.5,74.2,21.3C589.6,185.3,599.7,193.3,607.8,201.2z"/>
	<linearGradient id="SVGID_2_" gradientUnits="userSpaceOnUse" x1="540.8193" y1="150.9176" x2="582.044" y2="75.6478">
		<stop  offset="0" style="stop-color:#6C4BE8"/>
		<stop  offset="1" style="stop-color:#1F6FB1"/>
	</linearGradient>
	<path class="st1" d="M588.3,102.8l-29.4,53.1l-8.6-3.7l0-0.1c0,0-0.1,0-0.1-0.1c-7.8-3.2-15.4-6.1-22.6-8.5
		c-1.3-0.4-1.9-1.9-1.2-3.1l38.5-71.8c0.8-1.5,3-1.5,3.8-0.1c4.9,8.5,9.8,17.1,14.7,25.6l0,0L588.3,102.8z"/>
	<linearGradient id="SVGID_3_" gradientUnits="userSpaceOnUse" x1="605.549" y1="191.1629" x2="637.5868" y2="132.6669">
		<stop  offset="0" style="stop-color:#6C4BE8"/>
		<stop  offset="1" style="stop-color:#1F6FB1"/>
	</linearGradient>
	<path class="st2" d="M651.8,216.5c-7.1-6.5-14.9-13-23.3-19.5c-21.8-16.6-43.7-29.2-64.2-38.7c0,0-0.1,0-0.1,0l0,0l-1.5-0.6
		l28-50.6l0.7,1.2l-0.1,0.1c20.6,35.8,41.1,71.5,61.6,107.3C653.4,216.3,652.5,217.1,651.8,216.5z"/>
</g>
<g>
	<linearGradient id="SVGID_4_" gradientUnits="userSpaceOnUse" x1="17.9116" y1="112.7549" x2="93.0522" y2="112.7549">
		<stop  offset="0" style="stop-color:#6C4BE8"/>
		<stop  offset="1" style="stop-color:#1F6FB1"/>
	</linearGradient>
	<linearGradient id="SVGID_5_" gradientUnits="userSpaceOnUse" x1="17.5366" y1="112.7549" x2="93.4272" y2="112.7549">
		<stop  offset="0" style="stop-color:#6C4BE8"/>
		<stop  offset="1" style="stop-color:#1F6FB1"/>
	</linearGradient>
	<path style="fill:url(#SVGID_4_);stroke:url(#SVGID_5_);stroke-width:0.75;stroke-miterlimit:10;" d="M93.1,115.4
		c0,1.1-0.4,2.3-1.3,3.7c-0.8,1.4-2,2.8-3.4,4.3c-1.4,1.5-3.1,3.1-5,4.7c-1.9,1.6-3.9,3.3-6,4.9c-2.9,2.2-5.9,4.3-9.2,6.3
		c-3.2,2-6.5,3.8-9.9,5.3c-3.3,1.5-6.7,2.8-10,3.7c-3.3,0.9-6.5,1.4-9.5,1.4c-3.6,0-6.7-0.5-9.3-1.5c-2.6-1-4.8-2.5-6.5-4.3
		c-1.7-1.9-3-4.1-3.8-6.8c-0.8-2.6-1.2-5.6-1.2-8.8c0-2.7,0.3-5.4,0.9-8.3c0.6-2.8,1.5-5.6,2.6-8.3c1.1-2.7,2.4-5.4,3.9-8
		c1.5-2.6,3.1-4.9,4.8-7.1c1-1.2,2.2-2.6,3.6-3.9c1.4-1.4,2.8-2.7,4.4-4c1.5-1.3,3.1-2.5,4.6-3.7c1.6-1.1,3-2.1,4.5-3
		c1-0.6,2.3-1.3,3.8-2c1.5-0.7,3.1-1.4,4.8-2.1c1.7-0.6,3.3-1.2,4.9-1.6c1.6-0.4,3-0.7,4.2-0.7c2.1,0,3.8,0.1,5.1,0.4
		c1.2,0.3,2.4,0.8,3.3,1.5c0.5,0.3,1,0.9,1.6,1.6c0.6,0.7,1.2,1.5,1.7,2.3c0.5,0.8,1,1.7,1.4,2.5c0.4,0.8,0.6,1.5,0.6,2.1
		c0,0.4-0.1,0.9-0.4,1.5c-0.2,0.6-0.5,1.3-0.9,2.1s-0.8,1.5-1.3,2.3s-0.9,1.6-1.4,2.3c-0.5,0.7-0.9,1.4-1.3,1.9
		c-0.4,0.6-0.7,1-0.9,1.3c-1.4,1.7-3.2,2.5-5.3,2.5c-1.8,0-3.2-0.5-4.1-1.5c-1-1-1.5-2.3-1.5-3.8c0-0.5,0.3-1.2,0.8-2.2
		c0.5-1,1.4-2.1,2.6-3.4c0.6-0.6,1.1-1.2,1.5-1.8c0.4-0.6,0.8-1.1,1-1.5c-0.8-0.3-1.6-0.4-2.4-0.4c-1,0-2.2,0.2-3.6,0.7
		c-1.5,0.5-3,1.1-4.5,1.8c-1.6,0.7-3.1,1.6-4.6,2.5c-1.5,0.9-2.8,1.8-3.8,2.6c-2.9,2.3-5.6,5-8.2,7.9c-2.6,2.9-4.7,6.1-6.4,9.6
		c-0.7,1.4-1.3,2.8-1.9,4.4c-0.6,1.6-1.1,3.1-1.5,4.8c-0.4,1.6-0.8,3.2-1,4.8c-0.3,1.6-0.4,3.1-0.4,4.6c0,1.6,0.2,3.1,0.5,4.4
		c0.3,1.3,0.9,2.5,1.7,3.5c0.8,1,1.8,1.8,3.1,2.3c1.3,0.6,2.9,0.8,4.7,0.8c2.2,0,4.5-0.3,7-0.9s4.9-1.4,7.4-2.5c2.5-1,5-2.3,7.5-3.6
		c2.5-1.4,4.9-2.8,7.3-4.3c2.3-1.5,4.5-3,6.6-4.5c2.1-1.5,4-3,5.6-4.4c0.7-0.5,1.4-1.2,2.2-1.9c0.8-0.7,1.6-1.5,2.4-2.3
		c0.8-0.8,1.6-1.6,2.4-2.4c0.8-0.8,1.5-1.6,2.2-2.3c0.7,0.4,1.3,0.7,1.7,1s0.7,0.6,0.9,0.9c0.2,0.3,0.3,0.6,0.4,1
		C93,114.6,93.1,115,93.1,115.4z"/>
	<linearGradient id="SVGID_6_" gradientUnits="userSpaceOnUse" x1="88.0835" y1="121.3799" x2="155.3491" y2="121.3799">
		<stop  offset="0" style="stop-color:#6C4BE8"/>
		<stop  offset="1" style="stop-color:#1F6FB1"/>
	</linearGradient>
	<linearGradient id="SVGID_7_" gradientUnits="userSpaceOnUse" x1="87.7085" y1="121.3799" x2="155.7241" y2="121.3799">
		<stop  offset="0" style="stop-color:#6C4BE8"/>
		<stop  offset="1" style="stop-color:#1F6FB1"/>
	</linearGradient>
	<path style="fill:url(#SVGID_6_);stroke:url(#SVGID_7_);stroke-width:0.75;stroke-miterlimit:10;" d="M155.3,104.9
		c0,0.6-0.2,1.2-0.6,1.9c-0.4,0.7-0.9,1.3-1.5,2c-0.6,0.7-1.3,1.3-2.1,2c-0.8,0.7-1.6,1.3-2.3,1.8c-0.8,0.5-1.5,1-2.2,1.4
		c-0.7,0.4-1.3,0.7-1.8,0.9c-0.8,0.3-1.9,0.7-3.3,1c-1.3,0.3-2.7,0.5-4.2,0.8c-1.5,0.2-2.9,0.4-4.2,0.5c-1.4,0.1-2.5,0.2-3.4,0.2
		c-0.2,0-0.5,0-0.9-0.1c-0.4,0-0.8-0.1-1.3-0.2c-0.5-0.1-0.9-0.2-1.4-0.4c-0.5-0.1-0.8-0.3-1.1-0.5c0.3,0.7,0.5,1.5,0.6,2.4
		c0,0.9,0.1,1.7,0.1,2.6c0,0.6-0.1,1.3-0.2,2.1c-0.1,0.8-0.3,1.6-0.5,2.5c-0.2,0.8-0.4,1.7-0.7,2.4c-0.3,0.8-0.6,1.4-0.9,2
		c-0.8,1.3-1.6,2.6-2.5,3.7s-1.9,2.2-3,3.1c-1.1,1-2.3,1.9-3.7,2.7c-1.4,0.8-3,1.7-4.8,2.5c-1.9,0.8-3.9,1.4-5.8,1.8
		c-1.9,0.3-3.9,0.5-6,0.5c-1.5,0-2.9-0.4-4.1-1.2c-1.2-0.8-2.2-1.9-3-3.2c-0.8-1.3-1.4-2.9-1.9-4.6c-0.4-1.8-0.6-3.6-0.6-5.5
		c0-0.5,0-1.1,0.1-1.8c0.1-0.7,0.2-1.4,0.3-2.1c0.1-0.7,0.3-1.4,0.5-2.1c0.2-0.7,0.3-1.3,0.5-1.7c0.4-1.3,1.1-2.8,1.9-4.5
		c0.8-1.7,1.8-3.4,2.9-5.2c1.1-1.8,2.4-3.5,3.8-5.2c1.4-1.7,2.8-3.2,4.4-4.5c1.5-1.3,3.2-2.4,4.8-3.2c1.7-0.8,3.4-1.2,5-1.2
		c0.7,0,1.3,0.1,1.7,0.2c0.4,0.1,0.8,0.3,1.1,0.6s0.5,0.5,0.8,0.8c0.2,0.3,0.5,0.6,0.8,0.9c0.2-0.1,0.4-0.1,0.7-0.1
		c0.2,0,0.5,0,0.7,0c1,0,1.9,0.4,2.9,1.1s1.9,1.6,2.9,2.5c0.4,0.4,0.9,0.8,1.3,1.2c0.5,0.4,0.9,0.8,1.2,1.1s0.7,0.6,1,0.8
		c0.3,0.2,0.5,0.3,0.6,0.3c0.8,0,1.7,0,2.6,0c1,0,1.9,0,2.9-0.1s1.9-0.1,2.9-0.2c0.9-0.1,1.8-0.2,2.5-0.3c0.1,0,0.5-0.1,1.2-0.3
		c0.7-0.2,1.6-0.4,2.6-0.7c1-0.3,2.1-0.6,3.3-0.9c1.2-0.3,2.3-0.6,3.3-0.9c1-0.3,1.9-0.5,2.6-0.7c0.7-0.2,1.2-0.3,1.3-0.3
		c0.6,0,1.1,0.1,1.5,0.2C155.2,103.8,155.3,104.2,155.3,104.9z M101.3,136.2c2.5,0,4.8-0.7,6.7-2c2-1.3,3.6-3.1,4.9-5.4
		c1.3-2.2,2.4-4.8,3.1-7.6c0.7-2.9,1.1-5.8,1.1-8.8c-0.2-0.5-0.5-1-1-1.5c-0.4-0.5-0.9-0.9-1.4-1.3c-0.5-0.4-1.1-0.7-1.6-1
		c-0.6-0.3-1.1-0.4-1.5-0.4c-0.8,0-1.6,0.3-2.4,0.9c-0.9,0.6-1.7,1.2-2.4,1.8c-0.8,0.6-1.5,1.4-2.2,2.5c-0.7,1-1.4,2.1-2,3.4
		c-0.6,1.3-1.2,2.6-1.7,4c-0.5,1.4-1,2.8-1.4,4.1s-0.7,2.7-0.9,4c-0.2,1.3-0.3,2.4-0.3,3.4c0,0.5,0.1,1,0.2,1.5
		c0.2,0.5,0.4,0.9,0.6,1.3c0.3,0.4,0.6,0.7,1,0.9C100.4,136.1,100.8,136.2,101.3,136.2z"/>
	<linearGradient id="SVGID_8_" gradientUnits="userSpaceOnUse" x1="147.7085" y1="120.1846" x2="228.0991" y2="120.1846">
		<stop  offset="0" style="stop-color:#6C4BE8"/>
		<stop  offset="1" style="stop-color:#1F6FB1"/>
	</linearGradient>
	<linearGradient id="SVGID_9_" gradientUnits="userSpaceOnUse" x1="147.3335" y1="120.1846" x2="228.4741" y2="120.1846">
		<stop  offset="0" style="stop-color:#6C4BE8"/>
		<stop  offset="1" style="stop-color:#1F6FB1"/>
	</linearGradient>
	<path style="fill:url(#SVGID_8_);stroke:url(#SVGID_9_);stroke-width:0.75;stroke-miterlimit:10;" d="M228.1,112.3
		c0,0.6-0.1,1.2-0.3,1.9c-0.2,0.7-0.5,1.4-0.8,2.1c-0.3,0.7-0.7,1.3-1.1,1.9c-0.4,0.6-0.8,1.1-1.1,1.5c-1,1.3-2.1,2.6-3.4,4
		c-1.2,1.4-2.5,2.8-3.9,4.2c-1.3,1.4-2.7,2.7-4.1,4s-2.8,2.4-4.2,3.3c-1.1,0.8-2.1,1.4-3.2,2.1c-1,0.6-2.1,1.2-3.1,1.7
		c-1.1,0.5-2.2,0.9-3.4,1.2c-1.2,0.3-2.5,0.4-4,0.4c-2.3,0-4.3-0.5-5.8-1.4s-2.8-2.2-3.8-3.8c-1-1.6-1.7-3.4-2.2-5.4
		s-0.9-4.1-1.2-6.3c-0.4-3-0.9-5.3-1.4-7.1c-0.5-1.7-1.1-2.6-1.8-2.6c-0.6,0-1.2,0.1-1.8,0.4c-0.6,0.3-1.3,0.9-2.2,1.9
		c-0.9,1-2,2.4-3.4,4.2c-1.4,1.9-3.1,4.3-5.3,7.4c-0.8,1.1-1.7,2.3-2.7,3.6s-2.2,2.6-3.4,3.8c-1.2,1.2-2.4,2.3-3.5,3.2
		c-1.2,0.9-2.3,1.6-3.3,1.9c-3.9-0.9-5.9-4.6-5.9-11.3c0-1.7,0.2-4.2,0.6-7.5c0.2-1.5,0.4-3,0.6-4.6c0.2-1.6,0.5-3.3,0.9-4.9
		c0.4-1.6,0.8-3.3,1.3-4.8c0.5-1.6,1.1-3,1.7-4.4c0.4-0.8,0.8-1.3,1.3-1.8c0.5-0.4,0.9-0.8,1.4-1c0.5-0.2,1-0.4,1.5-0.4
		c0.5-0.1,1.1-0.1,1.6-0.1c0.5,0,0.9,0.1,1.4,0.4c0.4,0.2,0.8,0.6,1.2,1c0.3,0.4,0.6,1,0.8,1.6c0.2,0.6,0.3,1.3,0.3,2.2
		c0,0.7-0.1,1.4-0.2,2.1c-0.1,0.7-0.3,1.3-0.5,2c-0.2,0.7-0.4,1.4-0.7,2.2c-0.2,0.8-0.5,1.7-0.7,2.7c-0.2,0.7-0.4,1.5-0.7,2.5
		c-0.3,1-0.6,2.1-0.9,3.2c-0.3,1.1-0.6,2.2-0.8,3.3c-0.3,1.1-0.4,2-0.5,2.7c0.6-0.7,1.2-1.5,1.9-2.5c0.7-1,1.5-2,2.3-3.2
		c0.8-1.1,1.6-2.3,2.5-3.5c0.8-1.2,1.7-2.3,2.5-3.4c1.1-1.4,2.2-2.7,3.2-3.9c1.1-1.2,2.2-2.3,3.4-3.2s2.4-1.6,3.8-2.1
		c1.4-0.5,2.9-0.8,4.6-0.8c2,0,3.7,0.4,5,1.2c1.3,0.8,2.3,2,3.1,3.4c0.8,1.5,1.3,3.2,1.7,5.2s0.7,4.2,0.9,6.6
		c0.1,1.2,0.3,2.5,0.5,3.8c0.2,1.3,0.5,2.4,0.9,3.5c0.4,1,0.9,1.9,1.6,2.6c0.7,0.7,1.5,1,2.4,1c1.4,0,3-0.4,4.7-1.1
		c1.7-0.8,3.5-1.8,5.4-3.2c1.9-1.3,3.8-2.9,5.8-4.7s3.9-3.7,5.9-5.7c0.6-0.7,1.2-1.3,1.8-1.9c0.6-0.6,1.1-1.2,1.7-1.7
		c0.5-0.5,1-0.9,1.5-1.2c0.5-0.3,1-0.5,1.5-0.5c0.2,0,0.4,0,0.7,0.1c0.3,0,0.5,0.1,0.7,0.3c0.2,0.1,0.4,0.3,0.5,0.6
		C228,111.5,228.1,111.8,228.1,112.3z"/>
	<linearGradient id="SVGID_10_" gradientUnits="userSpaceOnUse" x1="209.5835" y1="115.8721" x2="271.5054" y2="115.8721">
		<stop  offset="0" style="stop-color:#6C4BE8"/>
		<stop  offset="1" style="stop-color:#1F6FB1"/>
	</linearGradient>
	<linearGradient id="SVGID_11_" gradientUnits="userSpaceOnUse" x1="209.2085" y1="115.8721" x2="271.8804" y2="115.8721">
		<stop  offset="0" style="stop-color:#6C4BE8"/>
		<stop  offset="1" style="stop-color:#1F6FB1"/>
	</linearGradient>
	<path style="fill:url(#SVGID_10_);stroke:url(#SVGID_11_);stroke-width:0.75;stroke-miterlimit:10;" d="M271.5,105.5
		c0,0.8-0.4,1.5-1.1,2.1c-0.7,0.7-1.7,1.3-2.9,1.8c-1.2,0.6-2.5,1.1-4,1.5c-1.5,0.5-3,0.9-4.5,1.2c-1.5,0.4-3,0.7-4.4,0.9
		c-1.4,0.2-2.6,0.4-3.5,0.6c-3.5,0.5-6.4,0.9-8.7,1.1c-2.3,0.3-4,0.6-5,1c-0.6,2.3-1.1,4.8-1.7,7.3c-0.6,2.5-1.1,4.9-1.6,7.1
		c-0.5,2.2-0.9,4.1-1.1,5.7c-0.3,1.6-0.4,2.7-0.4,3.3c0,0.4,0,0.8,0,1.1c0,0.3,0.1,0.6,0.2,0.8c0.1,0.3,0.2,0.5,0.2,0.7
		c0.1,0.2,0.2,0.5,0.3,0.8c0.1,0.3,0.3,0.7,0.4,1.3c0.1,0.5,0.2,1.1,0.4,1.6c0.1,0.5,0.2,1,0.3,1.5c0.1,0.5,0.1,0.8,0.1,1
		c0,0.6-0.1,1.2-0.4,1.9c-0.3,0.7-0.6,1.4-1.1,2c-0.5,0.6-1,1.1-1.7,1.6s-1.4,0.6-2.2,0.6c-0.8,0-1.6-0.2-2.3-0.7
		c-0.7-0.5-1.3-1-1.9-1.8c-0.6-0.7-1.1-1.6-1.5-2.5c-0.4-0.9-0.8-1.8-1.1-2.7s-0.5-1.8-0.6-2.6s-0.2-1.5-0.2-2
		c0-0.5,0.1-1.4,0.2-2.5c0.1-1.1,0.3-2.3,0.6-3.4c1-3.7,1.7-6.7,2.3-9c0.5-2.4,0.9-4.2,1.2-5.7c0.3-1.4,0.4-2.5,0.5-3.1
		c0.1-0.7,0.1-1.1,0.2-1.4c-0.4,0-1,0-1.7,0.1s-1.5,0.1-2.3,0.2c-0.8,0.1-1.5,0.1-2.2,0.2c-0.7,0-1.2,0.1-1.4,0.1
		c-1.7,0-3-0.1-4.2-0.3c-1.1-0.2-2-0.6-2.7-1.3c-0.7-0.6-1.2-1.5-1.5-2.7c-0.3-1.2-0.4-2.7-0.4-4.6c1.5,0,2.8-0.1,3.9-0.3
		s2.1-0.2,3-0.2c0.3,0,0.9,0,1.9-0.1c1-0.1,2.1-0.2,3.4-0.3s2.4-0.2,3.5-0.3c1.1-0.1,2-0.2,2.5-0.3c0.1-0.3,0.2-0.9,0.4-1.6
		s0.4-1.6,0.6-2.5c0.2-0.9,0.5-1.8,0.7-2.7c0.3-0.9,0.5-1.7,0.7-2.3c0.2-0.5,0.4-1.2,0.6-2.3c0.3-1.1,0.5-2.2,0.8-3.4
		c0.3-1.2,0.5-2.2,0.8-3.2s0.4-1.6,0.4-1.9c0.3-1.3,0.7-2.5,1.2-3.7c0.4-1.1,0.9-2.1,1.5-2.9c0.5-0.8,1.1-1.5,1.8-1.9
		s1.3-0.7,2.1-0.7c1.7,0,2.9,0.4,3.7,1.2c0.8,0.8,1.1,2.1,1.1,3.8c0,0.8-0.1,1.7-0.3,2.6c-0.2,1-0.5,2-0.8,3c-0.7,2.2-1.2,4-1.6,5.5
		c-0.4,1.5-0.6,2.8-0.9,3.9c-0.2,1.1-0.4,2.1-0.5,3.1c-0.1,0.9-0.3,2-0.5,3.1c0,0.1-0.1,0.4-0.1,0.7c0,0.4,0,0.6,0,0.8
		c2.7,0,5.3-0.1,7.9-0.4s5.2-0.5,7.9-0.8c1.5-0.2,2.8-0.3,4-0.5c1.1-0.2,2.2-0.4,3.2-0.5c1-0.2,1.9-0.3,2.8-0.4
		c0.9-0.1,1.9-0.2,3-0.2c0.4,0,0.8,0,1.2,0.1c0.4,0.1,0.8,0.2,1.1,0.4c0.3,0.2,0.6,0.5,0.8,0.9C271.4,104.4,271.5,104.9,271.5,105.5
		z"/>
	<linearGradient id="SVGID_12_" gradientUnits="userSpaceOnUse" x1="261.6147" y1="124.4268" x2="307.2241" y2="124.4268">
		<stop  offset="0" style="stop-color:#6C4BE8"/>
		<stop  offset="1" style="stop-color:#1F6FB1"/>
	</linearGradient>
	<linearGradient id="SVGID_13_" gradientUnits="userSpaceOnUse" x1="261.2397" y1="124.4268" x2="307.5991" y2="124.4268">
		<stop  offset="0" style="stop-color:#6C4BE8"/>
		<stop  offset="1" style="stop-color:#1F6FB1"/>
	</linearGradient>
	<path style="fill:url(#SVGID_12_);stroke:url(#SVGID_13_);stroke-width:0.75;stroke-miterlimit:10;" d="M307.2,108.3
		c0,0.3-0.1,0.7-0.2,1.1c-0.1,0.5-0.3,0.9-0.6,1.4c-0.3,0.5-0.6,0.9-1,1.2c-0.4,0.3-0.9,0.5-1.4,0.6c-0.1,0-0.4,0-0.8,0
		c-0.4,0-0.8,0-1.3-0.1c-0.5,0-0.9-0.1-1.3-0.1c-0.4,0-0.7,0-0.9,0c-5.2,0.3-9.7,2.2-13.5,5.6c-0.9,0.8-1.8,1.7-2.7,2.8
		c-0.9,1.1-1.8,2.2-2.7,3.5s-1.7,2.6-2.6,4.1c-0.8,1.4-1.5,2.9-2.2,4.5c-0.5,1.3-1,2.6-1.5,4c-0.5,1.4-0.9,2.8-1.3,4.3
		c-0.2,0.8-0.4,1.5-0.5,2.1c-0.1,0.6-0.3,1.3-0.5,2.1c-0.2,0.5-0.4,0.9-0.8,1.3c-0.4,0.4-0.8,0.7-1.3,0.9c-0.5,0.2-1,0.4-1.6,0.5
		c-0.5,0.1-1.1,0.2-1.6,0.2c-2,0-3.4-0.9-4.1-2.7s-1.1-4.5-1.1-8.1c0-0.8,0-1.6,0-2.3c0-0.7,0-1.4,0.1-2.2c0-0.7,0.1-1.5,0.2-2.3
		c0.1-0.8,0.1-1.7,0.2-2.7c0.1-1.5,0.3-3.2,0.5-5.2c0.2-2,0.5-4.1,0.7-6.1c0.3-2.1,0.5-4.1,0.8-6c0.3-1.9,0.6-3.6,0.9-4.9
		c0.4-1.7,1-3,1.9-3.9s2.2-1.4,3.9-1.4c0.5,0,1,0.1,1.5,0.4c0.5,0.3,1,0.6,1.4,1c0.4,0.4,0.8,0.8,1,1.2c0.3,0.4,0.4,0.8,0.5,1.2
		l0,0.8c0,0.9-0.1,1.9-0.2,3.1c-0.2,1.2-0.4,2.4-0.6,3.8c-0.3,1.3-0.5,2.7-0.8,4c-0.3,1.4-0.6,2.7-0.9,3.9c-0.3,1.2-0.6,2.4-0.8,3.4
		c-0.2,1-0.4,1.9-0.5,2.6c1.1-2.3,2.3-4.5,3.5-6.7c1.2-2.1,2.6-4.1,4-6c1.4-1.8,3-3.5,4.6-4.9c1.7-1.4,3.4-2.6,5.3-3.5
		c1.5-0.7,2.9-1.2,4.1-1.6c1.2-0.4,2.4-0.5,3.4-0.5c1.2,0,2.4,0.1,3.7,0.4c1.3,0.3,2.4,0.6,3.5,1.1c1,0.5,1.9,1.1,2.6,1.8
		C306.9,106.7,307.2,107.5,307.2,108.3z"/>
	<linearGradient id="SVGID_14_" gradientUnits="userSpaceOnUse" x1="304.1772" y1="122.6924" x2="372.0059" y2="122.6924">
		<stop  offset="0" style="stop-color:#6C4BE8"/>
		<stop  offset="1" style="stop-color:#1F6FB1"/>
	</linearGradient>
	<linearGradient id="SVGID_15_" gradientUnits="userSpaceOnUse" x1="303.8022" y1="122.6924" x2="372.3809" y2="122.6924">
		<stop  offset="0" style="stop-color:#6C4BE8"/>
		<stop  offset="1" style="stop-color:#1F6FB1"/>
	</linearGradient>
	<path style="fill:url(#SVGID_14_);stroke:url(#SVGID_15_);stroke-width:0.75;stroke-miterlimit:10;" d="M372,104.9
		c0,0.9-0.3,1.8-0.9,2.7c-0.6,0.9-1.4,1.7-2.3,2.4c-1,0.8-2.1,1.5-3.4,2.1s-2.7,1.2-4.1,1.7c-1.4,0.5-2.9,0.9-4.4,1.3
		c-1.5,0.4-2.9,0.6-4.2,0.8c-0.1,0-0.5,0-1,0c-0.5,0-1.2,0.1-1.9,0.1s-1.5,0.1-2.4,0.1s-1.6,0.1-2.4,0.1c-0.4,0-0.9,0-1.4,0
		c-0.5,0-0.8-0.1-1.1-0.1c0.1,0.5,0.1,0.9,0.1,1.2s0.1,0.6,0.1,0.9c0,0.3,0,0.5,0,0.8c0,0.3,0,0.6,0,1v4.8c0,0.8-0.1,1.6-0.2,2.5
		c-0.2,0.9-0.4,1.8-0.7,2.7c-0.3,0.9-0.6,1.8-1,2.6c-0.4,0.8-0.8,1.6-1.3,2.2c-0.7,1-1.6,1.9-2.7,2.9s-2.3,1.9-3.6,2.9
		c-1.3,0.9-2.7,1.8-4.2,2.6c-1.5,0.8-3,1.5-4.5,2.1c-1.5,0.6-2.9,1.1-4.4,1.4c-1.4,0.3-2.8,0.5-4,0.5c-2.4,0-4.3-0.4-5.9-1.1
		s-2.8-1.8-3.7-3.1c-0.9-1.3-1.6-2.8-1.9-4.5c-0.4-1.7-0.5-3.6-0.5-5.5c0-1.5,0.1-3,0.4-4.5c0.3-1.5,0.7-2.9,1.2-4.4
		c0.5-1.4,1.1-2.9,1.7-4.2c0.7-1.4,1.3-2.8,2-4.1c0.6-1.2,1.2-2.3,1.8-3.6c0.6-1.2,1.2-2.4,1.9-3.5c0.9-1.6,1.7-3,2.6-4.3
		c0.9-1.3,1.9-2.4,3.1-3.4s2.7-1.7,4.4-2.2s3.9-0.8,6.4-0.8c1.1,0,2,0.1,2.8,0.3c0.8,0.2,1.5,0.5,2.1,0.9c0.6,0.4,1.2,0.9,1.7,1.5
		s1,1.3,1.6,2.1c0.4,0.6,0.8,1.1,1.2,1.6c0.4,0.5,0.8,0.9,1.4,1.3c0.5,0.4,1.1,0.6,1.9,0.8s1.7,0.3,2.8,0.3c1.5,0,2.7,0,3.7,0
		s1.8,0,2.4,0c0.6,0,1.1,0,1.5-0.1c0.4,0,0.7-0.1,1.1-0.1c1.2-0.2,2.3-0.3,3.4-0.5c1-0.2,2-0.4,3-0.6c1-0.2,2-0.5,3-0.8
		c1-0.3,2.2-0.6,3.4-1c0.4-0.1,0.8-0.3,1.2-0.4s0.9-0.2,1.4-0.2c0.9,0,1.5,0.1,1.9,0.3C371.8,103.8,372,104.3,372,104.9z
		 M333.4,115.8c0-0.7,0-1.3-0.1-1.7c0-0.4-0.1-0.8-0.2-1.1s-0.2-0.5-0.4-0.7c-0.1-0.2-0.3-0.3-0.4-0.5c-0.3-0.3-0.7-0.8-1-1.2
		c-0.4-0.5-0.7-1-1.1-1.4c-0.3-0.5-0.6-0.8-0.9-1.2c-0.3-0.3-0.5-0.5-0.6-0.5c-0.8,0-1.7,0.3-2.6,0.8s-1.8,1.3-2.6,2.3
		c-0.9,1-1.7,2.1-2.6,3.4c-0.8,1.3-1.6,2.7-2.3,4.3c-0.6,1.3-1.2,2.7-1.8,4.2c-0.6,1.5-1.1,3-1.6,4.6c-0.5,1.6-0.8,3.1-1.1,4.6
		c-0.3,1.5-0.4,2.9-0.4,4.2c0,0.8,0.3,1.5,1,2.1c0.7,0.6,1.6,0.9,2.9,0.9c0.6,0,1.3-0.2,2.2-0.6c0.9-0.4,1.8-0.8,2.8-1.4
		c1-0.5,1.9-1.1,2.8-1.8c0.9-0.6,1.6-1.2,2.1-1.8c1.4-1.5,2.5-2.8,3.3-4.1c0.8-1.2,1.4-2.5,1.7-3.8s0.6-2.7,0.7-4.3
		C333.4,119.8,333.4,117.9,333.4,115.8z"/>
	<linearGradient id="SVGID_16_" gradientUnits="userSpaceOnUse" x1="362.4434" y1="110.3408" x2="402.2402" y2="110.3408">
		<stop  offset="0" style="stop-color:#6C4BE8"/>
		<stop  offset="1" style="stop-color:#1F6FB1"/>
	</linearGradient>
	<linearGradient id="SVGID_17_" gradientUnits="userSpaceOnUse" x1="362.0684" y1="110.3408" x2="402.6152" y2="110.3408">
		<stop  offset="0" style="stop-color:#6C4BE8"/>
		<stop  offset="1" style="stop-color:#1F6FB1"/>
	</linearGradient>
	<path style="fill:url(#SVGID_16_);stroke:url(#SVGID_17_);stroke-width:0.75;stroke-miterlimit:10;" d="M402.2,127.5
		c0,0.4-0.2,1-0.5,1.7c-0.3,0.7-0.7,1.5-1.1,2.3s-0.9,1.6-1.5,2.3c-0.5,0.8-1,1.4-1.4,1.9c-1.3,1.5-2.6,3-4.2,4.4
		c-1.5,1.4-3.2,2.7-4.9,3.8s-3.5,1.9-5.3,2.6c-1.8,0.6-3.6,1-5.3,1c-2.8,0-5.1-0.5-7.1-1.5s-3.6-2.5-4.9-4.5s-2.2-4.4-2.8-7.3
		c-0.6-2.9-0.9-6.2-0.9-9.8c0-2.2,0.1-4.6,0.3-7.3c0.2-2.6,0.5-5.4,0.9-8.2s0.8-5.6,1.4-8.5s1.1-5.6,1.7-8.3c0.6-2.6,1.3-5.1,2-7.4
		c0.7-2.3,1.4-4.3,2.2-6c0.7-1.7,1.5-3,2.2-4s1.5-1.5,2.2-1.5c0.6,0,1.2,0.1,1.7,0.4c0.5,0.3,1,0.6,1.4,0.9s0.8,0.8,1.1,1.3
		c0.3,0.5,0.6,1,0.8,1.4c-0.1,1.4-0.4,3.1-0.8,5.2c-0.4,2.1-0.8,4.3-1.3,6.7c-0.5,2.4-1,4.8-1.6,7.2c-0.5,2.4-1.1,4.7-1.5,6.7
		c-0.3,1.5-0.6,3.1-0.9,4.8s-0.5,3.4-0.6,5.1s-0.3,3.4-0.4,5s-0.1,3.2-0.1,4.7c0,4.8,0.5,8.5,1.6,11.1c1.1,2.6,2.9,3.8,5.5,3.8
		c1.6,0,3.1-0.3,4.6-0.8c1.5-0.5,2.9-1.2,4.3-2.1c1.4-0.9,2.6-1.8,3.8-2.9c1.2-1.1,2.3-2.2,3.3-3.2c0.7-0.8,1.5-1.5,2.2-2.2
		c0.8-0.7,1.4-1,1.9-1c0.9,0,1.4,0.2,1.6,0.5C402.1,126,402.2,126.6,402.2,127.5z"/>
	<linearGradient id="SVGID_18_" gradientUnits="userSpaceOnUse" x1="666.4277" y1="112.7549" x2="741.5684" y2="112.7549">
		<stop  offset="0" style="stop-color:#6C4BE8"/>
		<stop  offset="1" style="stop-color:#1F6FB1"/>
	</linearGradient>
	<linearGradient id="SVGID_19_" gradientUnits="userSpaceOnUse" x1="666.0527" y1="112.7549" x2="741.9434" y2="112.7549">
		<stop  offset="0" style="stop-color:#6C4BE8"/>
		<stop  offset="1" style="stop-color:#1F6FB1"/>
	</linearGradient>
	<path style="fill:url(#SVGID_18_);stroke:url(#SVGID_19_);stroke-width:0.75;stroke-miterlimit:10;" d="M741.6,115.4
		c0,1.1-0.4,2.3-1.3,3.7c-0.8,1.4-2,2.8-3.4,4.3c-1.4,1.5-3.1,3.1-5,4.7c-1.9,1.6-3.9,3.3-6,4.9c-2.9,2.2-5.9,4.3-9.2,6.3
		c-3.2,2-6.5,3.8-9.9,5.3s-6.7,2.8-10,3.7c-3.3,0.9-6.5,1.4-9.5,1.4c-3.6,0-6.7-0.5-9.3-1.5c-2.6-1-4.8-2.5-6.5-4.3s-3-4.1-3.8-6.8
		c-0.8-2.6-1.2-5.6-1.2-8.8c0-2.7,0.3-5.4,0.9-8.3s1.5-5.6,2.6-8.3c1.1-2.7,2.4-5.4,3.9-8c1.5-2.6,3.1-4.9,4.8-7.1
		c1-1.2,2.2-2.6,3.6-3.9s2.8-2.7,4.4-4s3.1-2.5,4.6-3.7c1.6-1.1,3-2.1,4.5-3c1-0.6,2.3-1.3,3.8-2c1.5-0.7,3.1-1.4,4.8-2.1
		c1.7-0.6,3.3-1.2,4.9-1.6c1.6-0.4,3-0.7,4.2-0.7c2.1,0,3.8,0.1,5.1,0.4s2.4,0.8,3.3,1.5c0.5,0.3,1,0.9,1.6,1.6
		c0.6,0.7,1.2,1.5,1.7,2.3s1,1.7,1.4,2.5c0.4,0.8,0.6,1.5,0.6,2.1c0,0.4-0.1,0.9-0.4,1.5c-0.2,0.6-0.5,1.3-0.9,2.1s-0.8,1.5-1.3,2.3
		s-0.9,1.6-1.4,2.3c-0.5,0.7-0.9,1.4-1.3,1.9s-0.7,1-0.9,1.3c-1.4,1.7-3.2,2.5-5.3,2.5c-1.8,0-3.2-0.5-4.1-1.5c-1-1-1.5-2.3-1.5-3.8
		c0-0.5,0.3-1.2,0.8-2.2c0.5-1,1.4-2.1,2.6-3.4c0.6-0.6,1.1-1.2,1.5-1.8c0.4-0.6,0.8-1.1,1-1.5c-0.8-0.3-1.6-0.4-2.4-0.4
		c-1,0-2.2,0.2-3.6,0.7c-1.5,0.5-3,1.1-4.5,1.8c-1.6,0.7-3.1,1.6-4.6,2.5c-1.5,0.9-2.8,1.8-3.8,2.6c-2.9,2.3-5.6,5-8.2,7.9
		c-2.6,2.9-4.7,6.1-6.4,9.6c-0.7,1.4-1.3,2.8-1.9,4.4c-0.6,1.6-1.1,3.1-1.5,4.8c-0.4,1.6-0.8,3.2-1,4.8c-0.3,1.6-0.4,3.1-0.4,4.6
		c0,1.6,0.2,3.1,0.5,4.4c0.3,1.3,0.9,2.5,1.7,3.5c0.8,1,1.8,1.8,3.1,2.3s2.9,0.8,4.7,0.8c2.2,0,4.5-0.3,7-0.9s4.9-1.4,7.4-2.5
		c2.5-1,5-2.3,7.5-3.6s4.9-2.8,7.3-4.3s4.5-3,6.6-4.5c2.1-1.5,4-3,5.6-4.4c0.7-0.5,1.4-1.2,2.2-1.9c0.8-0.7,1.6-1.5,2.4-2.3
		c0.8-0.8,1.6-1.6,2.4-2.4c0.8-0.8,1.5-1.6,2.2-2.3c0.7,0.4,1.3,0.7,1.7,1s0.7,0.6,0.9,0.9c0.2,0.3,0.3,0.6,0.4,1
		C741.5,114.6,741.6,115,741.6,115.4z"/>
	<linearGradient id="SVGID_20_" gradientUnits="userSpaceOnUse" x1="737.4902" y1="118.0283" x2="796.5059" y2="118.0283">
		<stop  offset="0" style="stop-color:#6C4BE8"/>
		<stop  offset="1" style="stop-color:#1F6FB1"/>
	</linearGradient>
	<linearGradient id="SVGID_21_" gradientUnits="userSpaceOnUse" x1="737.1152" y1="118.0283" x2="796.8809" y2="118.0283">
		<stop  offset="0" style="stop-color:#6C4BE8"/>
		<stop  offset="1" style="stop-color:#1F6FB1"/>
	</linearGradient>
	<path style="fill:url(#SVGID_20_);stroke:url(#SVGID_21_);stroke-width:0.75;stroke-miterlimit:10;" d="M796.5,110.6
		c0,0.3-0.1,0.6-0.3,1.2c-0.2,0.5-0.5,1.2-0.9,1.9c-1.2,1.9-2.7,4-4.6,6.3c-1.8,2.3-3.8,4.6-6,6.8c-2.2,2.3-4.6,4.5-7.1,6.6
		s-5.1,4-7.6,5.6c-2.6,1.6-5.1,2.9-7.7,3.9s-5,1.5-7.3,1.5c-2.9,0-5.5-0.4-7.7-1.2c-2.2-0.8-4-2-5.4-3.5s-2.5-3.4-3.2-5.7
		c-0.7-2.2-1.1-4.8-1.1-7.6c0-2.2,0.2-4.4,0.5-6.8c0.3-2.4,0.9-4.9,1.8-7.3s2.1-5,3.5-7.5c1.5-2.5,3.4-4.9,5.7-7.3
		c1.8-1.8,3.7-3.2,5.8-4.1s4-1.4,5.9-1.4c0.3,0,0.8,0.1,1.3,0.2s1.1,0.3,1.6,0.6c0.5,0.3,1,0.5,1.5,0.9c0.5,0.3,0.9,0.7,1.2,1.1
		c1,1.3,1.8,2.5,2.3,3.6c0.5,1.1,0.8,2.4,0.8,3.9c0,2.3-0.3,4.3-0.9,6.1c-0.6,1.8-1.5,3.5-2.6,5.1c-1.1,1.6-2.4,3.1-3.8,4.6
		c-1.5,1.5-3,3-4.7,4.6c-1,1-2.3,2-3.8,3.2c-1.5,1.1-3.2,2.4-4.9,3.7c0.3,1,0.6,1.8,0.9,2.5s0.8,1.3,1.4,1.8s1.2,0.8,2,1.1
		s1.7,0.4,2.8,0.4c1.5,0,3-0.3,4.7-0.8c1.7-0.5,3.4-1.1,5-1.9c1.5-0.7,2.9-1.6,4.4-2.6c1.4-1,2.9-2.1,4.4-3.3c0.9-0.7,2.1-1.7,3.5-3
		c1.4-1.3,2.9-2.6,4.3-4.1c1-0.9,2-1.9,3-2.7s2.1-1.9,3.2-3l2.5-2.4c1.8-1.5,3.3-2.2,4.4-2.2c0.6,0,1,0.2,1.1,0.5
		C796.4,109.9,796.5,110.2,796.5,110.6z M760.1,105.5c0-1.4-0.2-2.3-0.6-2.9s-0.9-0.8-1.4-0.8c-0.5,0-1,0.3-1.6,0.8
		s-1.3,1.3-1.9,2.3c-0.7,1-1.3,2.1-2,3.3s-1.3,2.6-1.9,4s-1.1,2.9-1.5,4.3c-0.4,1.5-0.7,2.9-0.8,4.3c0.9-0.8,1.7-1.4,2.5-2
		s1.4-1.3,2.1-1.9c0.7-0.7,1.4-1.5,2.2-2.4c0.8-1,1.6-1.9,2.4-3s1.4-2.1,1.9-3.1S760.1,106.4,760.1,105.5z"/>
	<linearGradient id="SVGID_22_" gradientUnits="userSpaceOnUse" x1="789.6621" y1="120.1846" x2="870.0527" y2="120.1846">
		<stop  offset="0" style="stop-color:#6C4BE8"/>
		<stop  offset="1" style="stop-color:#1F6FB1"/>
	</linearGradient>
	<linearGradient id="SVGID_23_" gradientUnits="userSpaceOnUse" x1="789.2871" y1="120.1846" x2="870.4277" y2="120.1846">
		<stop  offset="0" style="stop-color:#6C4BE8"/>
		<stop  offset="1" style="stop-color:#1F6FB1"/>
	</linearGradient>
	<path style="fill:url(#SVGID_22_);stroke:url(#SVGID_23_);stroke-width:0.75;stroke-miterlimit:10;" d="M870.1,112.3
		c0,0.6-0.1,1.2-0.3,1.9s-0.5,1.4-0.8,2.1c-0.3,0.7-0.7,1.3-1.1,1.9s-0.8,1.1-1.1,1.5c-1,1.3-2.1,2.6-3.4,4s-2.5,2.8-3.9,4.2
		c-1.3,1.4-2.7,2.7-4.1,4s-2.8,2.4-4.2,3.3c-1.1,0.8-2.1,1.4-3.2,2.1c-1,0.6-2.1,1.2-3.1,1.7c-1.1,0.5-2.2,0.9-3.4,1.2
		s-2.5,0.4-4,0.4c-2.3,0-4.3-0.5-5.8-1.4s-2.8-2.2-3.8-3.8c-1-1.6-1.7-3.4-2.2-5.4s-0.9-4.1-1.2-6.3c-0.4-3-0.9-5.3-1.4-7.1
		s-1.1-2.6-1.8-2.6c-0.6,0-1.2,0.1-1.8,0.4c-0.6,0.3-1.3,0.9-2.2,1.9c-0.9,1-2,2.4-3.4,4.2c-1.4,1.9-3.1,4.3-5.3,7.4
		c-0.8,1.1-1.7,2.3-2.7,3.6s-2.2,2.6-3.4,3.8c-1.2,1.2-2.4,2.3-3.5,3.2c-1.2,0.9-2.3,1.6-3.3,1.9c-3.9-0.9-5.9-4.6-5.9-11.3
		c0-1.7,0.2-4.2,0.6-7.5c0.2-1.5,0.4-3,0.6-4.6c0.2-1.6,0.5-3.3,0.9-4.9s0.8-3.3,1.3-4.8c0.5-1.6,1.1-3,1.7-4.4
		c0.4-0.8,0.8-1.3,1.3-1.8c0.5-0.4,0.9-0.8,1.4-1c0.5-0.2,1-0.4,1.5-0.4c0.5-0.1,1.1-0.1,1.6-0.1c0.5,0,0.9,0.1,1.4,0.4
		s0.8,0.6,1.2,1c0.3,0.4,0.6,1,0.8,1.6c0.2,0.6,0.3,1.3,0.3,2.2c0,0.7-0.1,1.4-0.2,2.1s-0.3,1.3-0.5,2s-0.4,1.4-0.7,2.2
		c-0.2,0.8-0.5,1.7-0.7,2.7c-0.2,0.7-0.4,1.5-0.7,2.5s-0.6,2.1-0.9,3.2c-0.3,1.1-0.6,2.2-0.8,3.3c-0.3,1.1-0.4,2-0.5,2.7
		c0.6-0.7,1.2-1.5,1.9-2.5s1.5-2,2.3-3.2c0.8-1.1,1.6-2.3,2.5-3.5c0.8-1.2,1.7-2.3,2.5-3.4c1.1-1.4,2.2-2.7,3.2-3.9s2.2-2.3,3.4-3.2
		s2.4-1.6,3.8-2.1s2.9-0.8,4.6-0.8c2,0,3.7,0.4,5,1.2c1.3,0.8,2.3,2,3.1,3.4c0.8,1.5,1.3,3.2,1.7,5.2s0.7,4.2,0.9,6.6
		c0.1,1.2,0.3,2.5,0.5,3.8c0.2,1.3,0.5,2.4,0.9,3.5c0.4,1,0.9,1.9,1.6,2.6c0.7,0.7,1.5,1,2.4,1c1.4,0,3-0.4,4.7-1.1
		c1.7-0.8,3.5-1.8,5.4-3.2c1.9-1.3,3.8-2.9,5.8-4.7s3.9-3.7,5.9-5.7c0.6-0.7,1.2-1.3,1.8-1.9c0.6-0.6,1.1-1.2,1.7-1.7s1-0.9,1.5-1.2
		c0.5-0.3,1-0.5,1.5-0.5c0.2,0,0.4,0,0.7,0.1s0.5,0.1,0.7,0.3s0.4,0.3,0.5,0.6C870,111.5,870.1,111.8,870.1,112.3z"/>
	<linearGradient id="SVGID_24_" gradientUnits="userSpaceOnUse" x1="851.5371" y1="115.8721" x2="913.459" y2="115.8721">
		<stop  offset="0" style="stop-color:#6C4BE8"/>
		<stop  offset="1" style="stop-color:#1F6FB1"/>
	</linearGradient>
	<linearGradient id="SVGID_25_" gradientUnits="userSpaceOnUse" x1="851.1621" y1="115.8721" x2="913.834" y2="115.8721">
		<stop  offset="0" style="stop-color:#6C4BE8"/>
		<stop  offset="1" style="stop-color:#1F6FB1"/>
	</linearGradient>
	<path style="fill:url(#SVGID_24_);stroke:url(#SVGID_25_);stroke-width:0.75;stroke-miterlimit:10;" d="M913.5,105.5
		c0,0.8-0.4,1.5-1.1,2.1s-1.7,1.3-2.9,1.8s-2.5,1.1-4,1.5c-1.5,0.5-3,0.9-4.5,1.2c-1.5,0.4-3,0.7-4.4,0.9s-2.6,0.4-3.5,0.6
		c-3.5,0.5-6.4,0.9-8.7,1.1c-2.3,0.3-4,0.6-5,1c-0.6,2.3-1.1,4.8-1.7,7.3c-0.6,2.5-1.1,4.9-1.6,7.1c-0.5,2.2-0.9,4.1-1.1,5.7
		c-0.3,1.6-0.4,2.7-0.4,3.3c0,0.4,0,0.8,0,1.1c0,0.3,0.1,0.6,0.2,0.8c0.1,0.3,0.2,0.5,0.2,0.7s0.2,0.5,0.3,0.8
		c0.1,0.3,0.3,0.7,0.4,1.3c0.1,0.5,0.2,1.1,0.4,1.6s0.2,1,0.3,1.5c0.1,0.5,0.1,0.8,0.1,1c0,0.6-0.1,1.2-0.4,1.9s-0.6,1.4-1.1,2
		c-0.5,0.6-1,1.1-1.7,1.6s-1.4,0.6-2.2,0.6c-0.8,0-1.6-0.2-2.3-0.7c-0.7-0.5-1.3-1-1.9-1.8c-0.6-0.7-1.1-1.6-1.5-2.5
		c-0.4-0.9-0.8-1.8-1.1-2.7s-0.5-1.8-0.6-2.6s-0.2-1.5-0.2-2c0-0.5,0.1-1.4,0.2-2.5s0.3-2.3,0.6-3.4c1-3.7,1.7-6.7,2.3-9
		c0.5-2.4,0.9-4.2,1.2-5.7c0.3-1.4,0.4-2.5,0.5-3.1s0.1-1.1,0.2-1.4c-0.4,0-1,0-1.7,0.1s-1.5,0.1-2.3,0.2c-0.8,0.1-1.5,0.1-2.2,0.2
		s-1.2,0.1-1.4,0.1c-1.7,0-3-0.1-4.2-0.3c-1.1-0.2-2-0.6-2.7-1.3c-0.7-0.6-1.2-1.5-1.5-2.7s-0.4-2.7-0.4-4.6c1.5,0,2.8-0.1,3.9-0.3
		s2.1-0.2,3-0.2c0.3,0,0.9,0,1.9-0.1c1-0.1,2.1-0.2,3.4-0.3s2.4-0.2,3.5-0.3c1.1-0.1,2-0.2,2.5-0.3c0.1-0.3,0.2-0.9,0.4-1.6
		s0.4-1.6,0.6-2.5c0.2-0.9,0.5-1.8,0.7-2.7c0.3-0.9,0.5-1.7,0.7-2.3c0.2-0.5,0.4-1.2,0.6-2.3s0.5-2.2,0.8-3.4
		c0.3-1.2,0.5-2.2,0.8-3.2s0.4-1.6,0.4-1.9c0.3-1.3,0.7-2.5,1.2-3.7c0.4-1.1,0.9-2.1,1.5-2.9c0.5-0.8,1.1-1.5,1.8-1.9
		s1.3-0.7,2.1-0.7c1.7,0,2.9,0.4,3.7,1.2c0.8,0.8,1.1,2.1,1.1,3.8c0,0.8-0.1,1.7-0.3,2.6c-0.2,1-0.5,2-0.8,3c-0.7,2.2-1.2,4-1.6,5.5
		c-0.4,1.5-0.6,2.8-0.9,3.9c-0.2,1.1-0.4,2.1-0.5,3.1s-0.3,2-0.5,3.1c0,0.1-0.1,0.4-0.1,0.7c0,0.4,0,0.6,0,0.8
		c2.7,0,5.3-0.1,7.9-0.4s5.2-0.5,7.9-0.8c1.5-0.2,2.8-0.3,4-0.5s2.2-0.4,3.2-0.5c1-0.2,1.9-0.3,2.8-0.4c0.9-0.1,1.9-0.2,3-0.2
		c0.4,0,0.8,0,1.2,0.1c0.4,0.1,0.8,0.2,1.1,0.4c0.3,0.2,0.6,0.5,0.8,0.9C913.3,104.4,913.5,104.9,913.5,105.5z"/>
	<linearGradient id="SVGID_26_" gradientUnits="userSpaceOnUse" x1="903.5684" y1="124.4268" x2="949.1777" y2="124.4268">
		<stop  offset="0" style="stop-color:#6C4BE8"/>
		<stop  offset="1" style="stop-color:#1F6FB1"/>
	</linearGradient>
	<linearGradient id="SVGID_27_" gradientUnits="userSpaceOnUse" x1="903.1934" y1="124.4268" x2="949.5527" y2="124.4268">
		<stop  offset="0" style="stop-color:#6C4BE8"/>
		<stop  offset="1" style="stop-color:#1F6FB1"/>
	</linearGradient>
	<path style="fill:url(#SVGID_26_);stroke:url(#SVGID_27_);stroke-width:0.75;stroke-miterlimit:10;" d="M949.2,108.3
		c0,0.3-0.1,0.7-0.2,1.1s-0.3,0.9-0.6,1.4s-0.6,0.9-1,1.2c-0.4,0.3-0.9,0.5-1.4,0.6c-0.1,0-0.4,0-0.8,0c-0.4,0-0.8,0-1.3-0.1
		c-0.5,0-0.9-0.1-1.3-0.1c-0.4,0-0.7,0-0.9,0c-5.2,0.3-9.7,2.2-13.5,5.6c-0.9,0.8-1.8,1.7-2.7,2.8c-0.9,1.1-1.8,2.2-2.7,3.5
		s-1.7,2.6-2.6,4.1c-0.8,1.4-1.5,2.9-2.2,4.5c-0.5,1.3-1,2.6-1.5,4s-0.9,2.8-1.3,4.3c-0.2,0.8-0.4,1.5-0.5,2.1s-0.3,1.3-0.5,2.1
		c-0.2,0.5-0.4,0.9-0.8,1.3c-0.4,0.4-0.8,0.7-1.3,0.9s-1,0.4-1.6,0.5c-0.5,0.1-1.1,0.2-1.6,0.2c-2,0-3.4-0.9-4.1-2.7
		s-1.1-4.5-1.1-8.1c0-0.8,0-1.6,0-2.3c0-0.7,0-1.4,0.1-2.2c0-0.7,0.1-1.5,0.2-2.3s0.1-1.7,0.2-2.7c0.1-1.5,0.3-3.2,0.5-5.2
		s0.5-4.1,0.7-6.1c0.3-2.1,0.5-4.1,0.8-6c0.3-1.9,0.6-3.6,0.9-4.9c0.4-1.7,1-3,1.9-3.9s2.2-1.4,3.9-1.4c0.5,0,1,0.1,1.5,0.4
		c0.5,0.3,1,0.6,1.4,1s0.8,0.8,1,1.2c0.3,0.4,0.4,0.8,0.5,1.2l0,0.8c0,0.9-0.1,1.9-0.2,3.1c-0.2,1.2-0.4,2.4-0.6,3.8
		c-0.3,1.3-0.5,2.7-0.8,4s-0.6,2.7-0.9,3.9c-0.3,1.2-0.6,2.4-0.8,3.4c-0.2,1-0.4,1.9-0.5,2.6c1.1-2.3,2.3-4.5,3.5-6.7
		c1.3-2.1,2.6-4.1,4-6s3-3.5,4.6-4.9c1.7-1.4,3.4-2.6,5.3-3.5c1.5-0.7,2.9-1.2,4.1-1.6c1.3-0.4,2.4-0.5,3.4-0.5
		c1.2,0,2.4,0.1,3.7,0.4c1.3,0.3,2.4,0.6,3.5,1.1c1,0.5,1.9,1.1,2.6,1.8C948.8,106.7,949.2,107.5,949.2,108.3z"/>
	<linearGradient id="SVGID_28_" gradientUnits="userSpaceOnUse" x1="947.7715" y1="121.7314" x2="1015.9277" y2="121.7314">
		<stop  offset="0" style="stop-color:#6C4BE8"/>
		<stop  offset="1" style="stop-color:#1F6FB1"/>
	</linearGradient>
	<linearGradient id="SVGID_29_" gradientUnits="userSpaceOnUse" x1="947.3965" y1="121.7314" x2="1016.3027" y2="121.7314">
		<stop  offset="0" style="stop-color:#6C4BE8"/>
		<stop  offset="1" style="stop-color:#1F6FB1"/>
	</linearGradient>
	<path style="fill:url(#SVGID_28_);stroke:url(#SVGID_29_);stroke-width:0.75;stroke-miterlimit:10;" d="M1015.9,107.6
		c0,0.4-0.3,1.2-0.8,2.5s-1.1,2.8-2,4.6s-1.9,3.7-3,5.8c-1.2,2.1-2.5,4.1-3.9,6c-1.8,2.4-3.6,4.6-5.5,6.5c-1.9,1.9-3.7,3.5-5.4,4.8
		c-1.8,1.3-3.4,2.3-4.9,2.9c-1.5,0.7-2.8,1-3.9,1c-1.8,0-3.2-0.3-4.4-0.8c-1.2-0.5-2.1-1.2-2.9-2.2s-1.4-2.1-1.8-3.4
		c-0.4-1.3-0.8-2.9-1-4.6c-1.3,1.9-2.6,3.8-4.1,5.6c-1.5,1.8-3,3.4-4.6,4.8s-3.2,2.5-4.9,3.4c-1.7,0.9-3.3,1.3-5,1.3
		c-1.1,0-2.2-0.2-3.4-0.6s-2.3-1-3.2-1.7c-1-0.8-1.8-1.8-2.5-3c-0.7-1.2-1-2.7-1-4.5c0-1.4,0.2-2.9,0.5-4.7c0.3-1.8,0.8-3.6,1.4-5.5
		c0.6-1.9,1.3-3.8,2-5.7c0.8-1.9,1.6-3.8,2.4-5.5s1.7-3.3,2.6-4.7s1.7-2.5,2.5-3.4c0.9-1,2.1-2,3.4-3.1c1.3-1,2.7-2,4.3-2.8
		s3.3-1.5,5.1-2.1c1.8-0.5,3.8-0.8,5.8-0.8c2.1,0,3.6,0.6,4.6,1.7c1,1.1,1.7,2.8,2.1,5.1c0,0.2,0.1,0.5,0.3,0.8
		c0.2,0.3,0.4,0.6,0.7,0.9s0.4,0.7,0.6,1c0.2,0.4,0.3,0.7,0.3,1.1c0,0.5-0.1,1-0.3,1.7c-0.2,0.7-0.4,1.5-0.7,2.3
		c-0.3,0.9-0.5,1.8-0.7,2.9c-0.2,1-0.3,2.2-0.3,3.4c0,1.8,0,3.5,0.1,5.2c0.1,1.7,0.2,3.2,0.5,4.5c0.3,1.3,0.6,2.3,1.1,3.1
		c0.5,0.8,1.2,1.2,2,1.2c0.7,0,1.6-0.3,2.6-0.9c1-0.6,2.2-1.4,3.4-2.4s2.5-2.3,3.8-3.7c1.3-1.4,2.6-2.9,3.9-4.6c1-1.3,2-2.7,2.8-4
		c0.8-1.3,1.6-2.6,2.3-3.9c0.7-1.2,1.4-2.4,2-3.5c0.6-1.1,1.2-2,1.8-2.9c0.6-0.8,1.2-1.5,1.8-1.9s1.2-0.7,1.8-0.7
		c0.4,0,0.8,0.2,1.1,0.6c0.3,0.3,0.5,1,0.5,2c0,0.2,0,0.3,0,0.5C1015.9,107.3,1015.9,107.5,1015.9,107.6L1015.9,107.6z M976.5,108.6
		c0-0.2-0.1-0.4-0.2-0.6s-0.3-0.5-0.4-0.7c-0.2-0.2-0.4-0.4-0.6-0.5s-0.4-0.2-0.6-0.2c-0.8,0-1.5,0.1-2.2,0.4s-1.3,0.6-1.9,1.1
		c-0.6,0.4-1.2,0.9-1.7,1.5c-0.5,0.5-1,1.1-1.4,1.7c-1.1,1.4-2.2,3.1-3.3,5.1s-2.2,4.1-3.1,6.4c-0.9,2.2-1.7,4.4-2.3,6.6
		s-0.9,4.1-0.9,5.8c0,0.5,0.2,1,0.7,1.3s1,0.5,1.8,0.5c0.6,0,1.3-0.3,2.2-1c0.9-0.6,1.8-1.5,2.8-2.6c1-1.1,2-2.3,3-3.6
		c1-1.3,1.9-2.7,2.7-4.1c1.5-2.6,2.8-5.4,3.8-8.2C976,114.5,976.5,111.6,976.5,108.6z"/>
	<linearGradient id="SVGID_30_" gradientUnits="userSpaceOnUse" x1="1009.0371" y1="110.3408" x2="1048.834" y2="110.3408">
		<stop  offset="0" style="stop-color:#6C4BE8"/>
		<stop  offset="1" style="stop-color:#1F6FB1"/>
	</linearGradient>
	<linearGradient id="SVGID_31_" gradientUnits="userSpaceOnUse" x1="1008.6621" y1="110.3408" x2="1049.209" y2="110.3408">
		<stop  offset="0" style="stop-color:#6C4BE8"/>
		<stop  offset="1" style="stop-color:#1F6FB1"/>
	</linearGradient>
	<path style="fill:url(#SVGID_30_);stroke:url(#SVGID_31_);stroke-width:0.75;stroke-miterlimit:10;" d="M1048.8,127.5
		c0,0.4-0.2,1-0.5,1.7c-0.3,0.7-0.7,1.5-1.1,2.3s-0.9,1.6-1.5,2.3c-0.5,0.8-1,1.4-1.4,1.9c-1.3,1.5-2.6,3-4.2,4.4
		c-1.5,1.4-3.2,2.7-4.9,3.8s-3.5,1.9-5.3,2.6c-1.8,0.6-3.6,1-5.3,1c-2.8,0-5.1-0.5-7.1-1.5s-3.6-2.5-4.9-4.5s-2.2-4.4-2.8-7.3
		c-0.6-2.9-0.9-6.2-0.9-9.8c0-2.2,0.1-4.6,0.3-7.3c0.2-2.6,0.5-5.4,0.9-8.2s0.8-5.6,1.4-8.5s1.1-5.6,1.7-8.3c0.6-2.6,1.3-5.1,2-7.4
		c0.7-2.3,1.4-4.3,2.2-6c0.7-1.7,1.5-3,2.2-4s1.5-1.5,2.2-1.5c0.6,0,1.2,0.1,1.7,0.4c0.5,0.3,1,0.6,1.4,0.9s0.8,0.8,1.1,1.3
		c0.3,0.5,0.6,1,0.8,1.4c-0.1,1.4-0.4,3.1-0.8,5.2c-0.4,2.1-0.8,4.3-1.3,6.7c-0.5,2.4-1,4.8-1.6,7.2c-0.5,2.4-1.1,4.7-1.5,6.7
		c-0.3,1.5-0.6,3.1-0.9,4.8s-0.5,3.4-0.6,5.1s-0.3,3.4-0.4,5s-0.1,3.2-0.1,4.7c0,4.8,0.5,8.5,1.6,11.1c1.1,2.6,2.9,3.8,5.5,3.8
		c1.6,0,3.1-0.3,4.6-0.8c1.5-0.5,2.9-1.2,4.3-2.1c1.4-0.9,2.6-1.8,3.8-2.9c1.2-1.1,2.3-2.2,3.3-3.2c0.7-0.8,1.5-1.5,2.2-2.2
		c0.8-0.7,1.4-1,1.9-1c0.9,0,1.4,0.2,1.6,0.5C1048.7,126,1048.8,126.6,1048.8,127.5z"/>
</g>
</svg>
